<svg width="30" height="30" viewBox="0 0 30 30" fill="none" xmlns="http://www.w3.org/2000/svg">
<path d="M6.93998 0.0440978C8.8287 0.044098 10.5857 0.7941 11.9034 2.11762L15.9444 6.17647L16.0762 5.64705C16.4276 4.10295 17.2621 2.69115 18.492 1.63237C19.1069 1.14705 19.8097 0.749999 20.5564 0.44115C21.347 0.176475 22.1376 -6.87353e-07 22.9722 -6.14391e-07C24.8609 -4.49274e-07 26.6179 0.750002 27.9356 2.07353C29.2533 3.39705 30 5.2059 30 7.05885L30 17.603L30 23.1618C30 23.2941 30 23.3823 30 23.5147C30 23.5147 30 23.5147 30 23.5588C30 23.603 30 23.6912 30 23.7353L30 23.7794L30 23.8235C30 23.8235 30 23.8235 30 23.8677L30 23.9118L30 23.9559L30 24C30 24.0441 30 24.1323 29.9561 24.1765C29.9561 24.2206 29.9561 24.2206 29.9561 24.2647C29.9561 24.3088 29.9561 24.3529 29.9122 24.397L29.9122 24.4412L29.9122 24.4853L29.9122 24.5294L29.9122 24.5735L29.9122 24.6176L29.9122 24.6618L29.9122 24.7059C29.9122 24.75 29.9121 24.7941 29.8682 24.7941C29.8682 24.7941 29.8682 24.7941 29.8682 24.8382C29.8682 24.8382 29.8682 24.8382 29.8682 24.8824C29.8243 24.9706 29.8243 25.0588 29.7804 25.1471C29.7804 25.1912 29.7365 25.2353 29.7365 25.2353C29.6925 25.3677 29.6486 25.5 29.6047 25.6324C29.6047 25.6324 29.6047 25.6324 29.6047 25.6765C29.5608 25.7647 29.5608 25.8088 29.5168 25.8971L29.5168 25.9412C29.5168 25.9412 29.5169 25.9853 29.4729 25.9853C29.4729 26.0294 29.429 26.0735 29.429 26.1177C29.429 26.1177 29.429 26.1618 29.3851 26.1618C29.3851 26.1618 29.3851 26.2059 29.3411 26.2059C29.3411 26.25 29.2972 26.2941 29.2972 26.2941C29.2972 26.2941 29.2972 26.3382 29.2533 26.3382C29.2533 26.3382 29.2533 26.3823 29.2094 26.3823C29.1654 26.4706 29.1215 26.5147 29.0776 26.6029C28.7701 27.0882 28.4187 27.5735 28.0234 27.9706C27.7599 28.2353 27.4524 28.5 27.101 28.7647C26.6179 29.1177 26.0908 29.3824 25.5198 29.603C25.4319 29.6471 25.3441 29.6471 25.2562 29.6912L25.2123 29.6912C25.1244 29.7353 25.0366 29.7353 24.9488 29.7794C24.9488 29.7794 24.9488 29.7794 24.9048 29.7794C24.817 29.8235 24.7292 29.8235 24.6413 29.8235C24.1142 29.9559 23.5871 30 23.06 30L12.6501 30L12.3427 30L7.0278 30C3.16253 30 2.77696e-07 26.8235 6.17102e-07 22.9412C7.8295e-07 21.0441 0.746778 19.2794 2.06445 17.9559C3.03075 16.9853 4.26068 16.3235 5.57835 16.0588L6.10545 15.9265L2.06445 11.8676C-0.658796 9.13237 -0.658796 4.63237 2.06445 1.85295C3.2943 0.794097 5.05125 0.0440976 6.93998 0.0440978ZM8.91653 5.1618C8.3895 4.63237 7.68668 4.32352 6.93998 4.32352C6.19328 4.32352 5.49053 4.63237 4.96343 5.1618C4.43633 5.69115 4.12883 6.39705 4.12883 7.14705C4.12883 7.89705 4.43633 8.60295 4.96343 9.13237L11.9912 16.1911L15.9005 16.1911L15.9005 12.7941L15.9005 12.2206L9.83895 6.13237L8.91653 5.1618ZM25.7394 7.10295C25.7394 6.35295 25.4319 5.64705 24.9048 5.1177C24.3778 4.58828 23.675 4.27942 22.9283 4.27942C22.1816 4.27942 21.4788 4.58828 20.9517 5.1177C20.4246 5.64705 20.1172 6.35295 20.1172 7.10295L20.1172 23.2059C20.1172 23.9118 20.3807 24.6176 20.9078 25.1471L20.9517 25.1912C21.4788 25.7206 22.1815 26.0294 22.9283 26.0294C23.0161 26.0294 23.104 26.0294 23.1918 26.0294L23.2357 26.0294C23.2796 26.0294 23.3675 26.0294 23.4553 25.9853C23.5432 25.9853 23.5871 25.9412 23.675 25.9412C23.7628 25.9412 23.8067 25.8971 23.8507 25.8971C24.246 25.7647 24.5974 25.5 24.9048 25.1912C24.9488 25.1471 24.9927 25.1029 25.0366 25.0147C25.3001 24.6618 25.4759 24.2647 25.5637 23.8235C25.5637 23.7794 25.5637 23.6912 25.6076 23.6471C25.6076 23.6471 25.6076 23.6471 25.6076 23.6029C25.6076 23.6029 25.6076 23.5588 25.6076 23.5147C25.6076 23.4706 25.6076 23.3824 25.6076 23.3382L25.6076 23.2941C25.6076 23.25 25.6076 23.25 25.6076 23.2059L25.7394 7.10295ZM6.93998 20.5147C6.19328 20.5147 5.49053 20.7353 4.96343 21.2647C4.43633 21.7941 4.12883 22.5 4.12883 23.25C4.12883 24 4.43633 24.7059 4.96343 25.2353C5.49053 25.7647 6.19328 26.0735 6.93998 26.0735L16.4714 26.0735L16.3397 25.6765C16.0762 24.9265 15.9444 24.0882 15.9444 23.2941L15.9444 20.5147L7.8624 20.5147L6.93998 20.5147Z" fill="white"/>
<rect x="27" y="27" width="8.25" height="24" transform="rotate(-180 27 27)" fill="white"/>
<rect x="20.25" y="27.75" width="16.5" height="8.25" transform="rotate(-180 20.25 27.75)" fill="white"/>
<rect x="14.5986" y="20.5115" width="18.9701" height="8.25" transform="rotate(-134.512 14.5986 20.5115)" fill="white"/>
</svg>
